<svg width="57" height="80" viewBox="0 0 57 80" fill="none" xmlns="http://www.w3.org/2000/svg">
<path d="M33.6543 77.8356C33.165 79.1355 31.9252 79.994 30.5398 80.0001C29.1528 80.0046 27.9055 79.155 27.4072 77.8626C20.6423 60.2995 7.03125 37.7337 7.03125 27.0166C7.0311 14.0284 17.5966 3.45844 30.5908 3.45844C43.5788 3.45844 54.1473 14.0284 54.1473 27.0166C54.1487 37.7651 40.3366 60.0833 33.6543 77.8356ZM30.5908 7.93891C20.402 7.93891 12.115 16.2259 12.115 26.4102C12.115 36.6005 20.402 44.8919 30.5908 44.8919C40.7764 44.8919 49.0634 36.6034 49.0634 26.4102C49.0619 16.2259 40.7764 7.93891 30.5908 7.93891Z" fill="url(#paint0_linear_745_172)"/>
<path fill-rule="evenodd" clip-rule="evenodd" d="M17.6359 16.1379C18.3635 16.6159 23.1399 20.3977 23.8225 25.1743C24.5046 29.9527 25.7327 28.5189 31.9664 29.5536C38.2011 30.5891 42.3401 37.0777 42.3401 37.0777L42.5223 36.9053C42.5223 36.9053 43.2499 35.6058 42.7494 30.5891C42.1527 24.59 36.539 19.6083 30.2681 17.6501C27.0654 16.6518 20.5966 15.9893 18.3687 15.9893C17.7742 15.9893 17.4818 16.0366 17.6359 16.1379ZM41.7984 34.4719C40.2743 27.9042 34.9597 22.7569 27.235 20.1991C26.6566 19.9257 26.8256 19.123 26.8256 19.123C35.6676 20.2808 42.1264 29.4165 42.408 36.6722L41.7984 34.4719Z" fill="url(#paint1_linear_745_172)"/>
<defs>
<linearGradient id="paint0_linear_745_172" x1="30.5893" y1="3.45844" x2="30.5893" y2="80.0001" gradientUnits="userSpaceOnUse">
<stop stop-color="#9BC76B"/>
<stop offset="0.291667" stop-color="#6EB55F"/>
<stop offset="0.427083" stop-color="#3BA052"/>
<stop offset="1" stop-color="#078A45"/>
</linearGradient>
<linearGradient id="paint1_linear_745_172" x1="30.2603" y1="15.9914" x2="30.2603" y2="37.08" gradientUnits="userSpaceOnUse">
<stop stop-color="#9BC76A"/>
<stop offset="1" stop-color="#068944"/>
</linearGradient>
</defs>
</svg>
