<svg id="_1" data-name="???? 1" xmlns="http://www.w3.org/2000/svg" xmlns:xlink="http://www.w3.org/1999/xlink" viewBox="0 0 522.6 219.02"><defs><style>.cls-1,.cls-2{fill-rule:evenodd;}.cls-1{fill:url(#GradientFill_1);}.cls-2{fill:url(#GradientFill_2);}</style><linearGradient id="GradientFill_1" x1="293.02" y1="444.74" x2="293.02" y2="294.61" gradientUnits="userSpaceOnUse"><stop offset="0" stop-color="#9ece67"/><stop offset="0.06" stop-color="#90c864"/><stop offset="0.29" stop-color="#5db159"/><stop offset="0.51" stop-color="#359f50"/><stop offset="0.7" stop-color="#189249"/><stop offset="0.88" stop-color="#068a45"/><stop offset="1" stop-color="#008744"/></linearGradient><linearGradient id="GradientFill_2" x1="160.65" y1="225.75" x2="160.65" y2="310.99" gradientUnits="userSpaceOnUse"><stop offset="0" stop-color="#9bcd68"/><stop offset="1" stop-color="#084"/></linearGradient></defs><path class="cls-1" d="M31.72,444.77H156a60.16,60.16,0,0,0,52.9-31.48h0v6.85a24.63,24.63,0,0,0,24.62,24.63H375.39A24.63,24.63,0,0,0,400,420.14h0V323.6h45.86l34.28,61.79-46.35-.48,1.45,27,58.9.48L513,444.77h41.35L464.7,294.64H233.47a24.61,24.61,0,0,0-24.62,24.61h0v8.91a62.89,62.89,0,0,0-55.64-33.52H31.72V444.77ZM60.25,323.31h90.63a21.61,21.61,0,0,1,21.61,21.61h0V394a22.38,22.38,0,0,1-22.37,22.38H60.25V323.31Zm186.56,0H359.05V416.4H246.81Z" transform="translate(-31.72 -225.74)"/><path class="cls-2" d="M116,226.34c2.58,1.94,19.47,17.22,21.88,36.53h0c2.42,19.31,6.76,13.52,28.81,17.7h0c22.05,4.18,36.68,30.41,36.68,30.41l.65-.7s2.57-5.25.8-25.53c-2.11-24.24-22-44.38-44.14-52.29h0c-11.33-4-34.21-6.72-42.08-6.72h0c-2.11,0-3.14.19-2.6.6Zm85.46,74.11c-5.39-26.55-24.19-47.35-51.51-57.69h0c-2-1.11-1.45-4.35-1.45-4.35h0c31.28,4.68,54.12,41.6,55.11,70.93Z" transform="translate(-31.72 -225.74)"/></svg>